<svg width="27" height="38" viewBox="0 0 27 38" fill="none" xmlns="http://www.w3.org/2000/svg">
<g clip-path="url(#clip0_2080_1283)">
<path fill-rule="evenodd" clip-rule="evenodd" d="M26.2888 38H0.711167C0.318543 38 0 37.6514 0 37.2211V35.7281C0 35.2978 0.318543 34.9492 0.711167 34.9492H26.2894C26.682 34.9492 27.0005 35.2978 27.0005 35.7281V37.2211C27.0005 37.6514 26.682 38 26.2894 38H26.2888Z" fill="#26A085"/>
<path fill-rule="evenodd" clip-rule="evenodd" d="M26.2888 37.3185H0.711167C0.318543 37.3185 0 36.9699 0 36.5396V3.88682C0 3.45651 0.318543 3.10791 0.711167 3.10791H26.2894C26.682 3.10791 27.0005 3.45651 27.0005 3.88682V36.5396C27.0005 36.9699 26.682 37.3185 26.2894 37.3185H26.2888Z" fill="#3EB298"/>
<path fill-rule="evenodd" clip-rule="evenodd" d="M24.5626 36.1136H2.43973C2.10954 36.1136 1.8418 35.8298 1.8418 35.4801V33.9435C1.8418 33.5938 2.10954 33.3101 2.43973 33.3101H24.5626C24.8928 33.3101 25.1606 33.5938 25.1606 33.9435V35.4801C25.1606 35.8298 24.8928 36.1136 24.5626 36.1136Z" fill="#95A4A5"/>
<path fill-rule="evenodd" clip-rule="evenodd" d="M24.5626 35.608H2.43973C2.10954 35.608 1.8418 35.3243 1.8418 34.9746V5.72235C1.8418 5.37265 2.10954 5.08887 2.43973 5.08887H24.5626C24.8928 5.08887 25.1606 5.37265 25.1606 5.72235V34.9751C25.1606 35.3248 24.8928 35.6086 24.5626 35.6086V35.608Z" fill="#FBFAFA"/>
<path fill-rule="evenodd" clip-rule="evenodd" d="M4.20898 11.6568C4.20898 10.623 5.00058 9.78467 5.97685 9.78467C6.95311 9.78467 7.74471 10.623 7.74471 11.6568C7.74471 12.6906 6.95311 13.5289 5.97685 13.5289C5.00058 13.5289 4.20898 12.6906 4.20898 11.6568Z" fill="#ECF0F1"/>
<path d="M6.62727 11.0865L5.84996 11.9096L5.39596 11.4286C5.35892 11.3894 5.29807 11.3894 5.26103 11.4286L5.09223 11.6078C5.05519 11.647 5.05519 11.7113 5.09223 11.7511L5.61397 12.3034L5.78276 12.4826C5.8198 12.5218 5.88065 12.5218 5.91769 12.4826L6.08649 12.3034L6.93153 11.409C6.96857 11.3698 6.96857 11.305 6.93153 11.2657L6.76273 11.0865C6.72569 11.0473 6.66484 11.0473 6.6278 11.0865H6.62727Z" fill="#26A085"/>
<path d="M22.1593 10.5366H9.01172V12.778H22.1593V10.5366Z" fill="#95A4A5"/>
<path d="M22.1593 16.874H9.01172V19.1154H22.1593V16.874Z" fill="#95A4A5"/>
<path d="M22.1593 23.2119H9.01172V25.4533H22.1593V23.2119Z" fill="#95A4A5"/>
<path d="M22.1593 29.5503H9.01172V31.7917H22.1593V29.5503Z" fill="#95A4A5"/>
<path fill-rule="evenodd" clip-rule="evenodd" d="M4.20898 17.9952C4.20898 16.9613 5.00058 16.123 5.97685 16.123C6.95311 16.123 7.74471 16.9613 7.74471 17.9952C7.74471 19.029 6.95311 19.8673 5.97685 19.8673C5.00058 19.8673 4.20898 19.029 4.20898 17.9952Z" fill="#ECF0F1"/>
<path d="M6.62727 17.4249L5.84996 18.248L5.39596 17.767C5.35892 17.7278 5.29807 17.7278 5.26103 17.767L5.09223 17.9462C5.05519 17.9854 5.05519 18.0497 5.09223 18.0894L5.61397 18.6418L5.78276 18.821C5.8198 18.8602 5.88065 18.8602 5.91769 18.821L6.08649 18.6418L6.93153 17.7474C6.96857 17.7082 6.96857 17.6433 6.93153 17.6041L6.76273 17.4249C6.72569 17.3857 6.66484 17.3857 6.6278 17.4249H6.62727Z" fill="#26A085"/>
<path fill-rule="evenodd" clip-rule="evenodd" d="M4.20898 24.3326C4.20898 23.2987 5.00058 22.4604 5.97685 22.4604C6.95311 22.4604 7.74471 23.2987 7.74471 24.3326C7.74471 25.3664 6.95311 26.2047 5.97685 26.2047C5.00058 26.2047 4.20898 25.3664 4.20898 24.3326Z" fill="#ECF0F1"/>
<path d="M6.62727 23.7623L5.84996 24.5854L5.39596 24.1044C5.35892 24.0652 5.29807 24.0652 5.26103 24.1044L5.09223 24.2836C5.05519 24.3228 5.05519 24.3871 5.09223 24.4269L5.61397 24.9792L5.78276 25.1584C5.8198 25.1976 5.88065 25.1976 5.91769 25.1584L6.08649 24.9792L6.93153 24.0848C6.96857 24.0456 6.96857 23.9807 6.93153 23.9415L6.76273 23.7623C6.72569 23.7231 6.66484 23.7231 6.6278 23.7623H6.62727Z" fill="#26A085"/>
<path fill-rule="evenodd" clip-rule="evenodd" d="M4.20898 30.6705C4.20898 29.6366 5.00058 28.7983 5.97685 28.7983C6.95311 28.7983 7.74471 29.6366 7.74471 30.6705C7.74471 31.7043 6.95311 32.5426 5.97685 32.5426C5.00058 32.5426 4.20898 31.7043 4.20898 30.6705Z" fill="#ECF0F1"/>
<path d="M6.62727 30.1002L5.84996 30.9232L5.39596 30.4423C5.35892 30.4031 5.29807 30.4031 5.26103 30.4423L5.09223 30.6215C5.05519 30.6607 5.05519 30.725 5.09223 30.7647L5.61397 31.3171L5.78276 31.4963C5.8198 31.5355 5.88065 31.5355 5.91769 31.4963L6.08649 31.3171L6.93153 30.4227C6.96857 30.3835 6.96857 30.3186 6.93153 30.2794L6.76273 30.1002C6.72569 30.061 6.66484 30.061 6.6278 30.1002H6.62727Z" fill="#26A085"/>
<path fill-rule="evenodd" clip-rule="evenodd" d="M21.0388 5.15544H5.96094V2.8198C5.96094 2.61935 6.11439 2.45703 6.30382 2.45703H20.6965C20.8859 2.45703 21.0394 2.61935 21.0394 2.8198V5.15544H21.0388Z" fill="#95A4A5"/>
<path d="M21.0388 5.15576H5.96094V6.19286H21.0388V5.15576Z" fill="#808C8D"/>
<path d="M13.4989 4.63098C14.7064 4.63098 15.6853 3.5943 15.6853 2.31549C15.6853 1.03668 14.7064 0 13.4989 0C12.2914 0 11.3125 1.03668 11.3125 2.31549C11.3125 3.5943 12.2914 4.63098 13.4989 4.63098Z" fill="#95A4A5"/>
<path d="M13.4984 3.58586C14.1609 3.58586 14.698 3.01716 14.698 2.31564C14.698 1.61411 14.1609 1.04541 13.4984 1.04541C12.8359 1.04541 12.2988 1.61411 12.2988 2.31564C12.2988 3.01716 12.8359 3.58586 13.4984 3.58586Z" fill="white"/>
</g>
<defs>
<clipPath id="clip0_2080_1283">
<rect width="27" height="38" fill="white"/>
</clipPath>
</defs>
</svg>
