<svg width="28" height="38" viewBox="0 0 28 38" fill="none" xmlns="http://www.w3.org/2000/svg">
<g clip-path="url(#clip0_2080_1169)">
<path d="M27.0717 3.4192V36.1814C26.9465 37.2347 26.1829 37.9998 25.2398 37.9998H1.70519C0.762052 37.9998 0 37.2362 0 36.2946V3.53238C0 2.58924 0.76507 1.82568 1.7067 1.82568H25.2383C26.1814 1.82568 26.945 2.58924 27.0702 3.42071L27.0717 3.4192Z" fill="#A8A3C0"/>
<path d="M9.54067 3.59131H2.24609V34.763H24.824V3.59131H20.9835H18.2975H17.5294H9.54067Z" fill="#F9F8F7"/>
<path d="M16.9016 1.27796L16.8971 1.27344H9.7685C9.57535 1.27344 9.41992 1.43038 9.41992 1.62202V3.06313C9.41992 3.8448 10.0537 4.4816 10.8384 4.4816H16.1033C16.7507 4.4816 17.294 4.05002 17.466 3.46C17.5022 3.33475 17.5218 3.20045 17.5218 3.06313V1.81668L16.9016 1.27947V1.27796Z" fill="#857FB5"/>
<path d="M14.6428 1.171V1.27361H12.3008V1.171C12.3008 1.01104 12.3325 0.85712 12.3883 0.7198C12.5679 0.295767 12.9829 0 13.4718 0C13.7947 0 14.0859 0.132793 14.3002 0.342546C14.5145 0.552299 14.6428 0.846557 14.6428 1.171ZM13.7736 0.636804C13.7736 0.470812 13.6393 0.333492 13.4718 0.333492C13.3043 0.333492 13.1685 0.470812 13.1685 0.636804C13.1685 0.802796 13.3028 0.938607 13.4718 0.938607C13.6408 0.938607 13.7736 0.804305 13.7736 0.636804Z" fill="#857FB5"/>
<path d="M13.4732 0.333496C13.6392 0.333496 13.775 0.470816 13.775 0.636808C13.775 0.8028 13.6407 0.938611 13.4732 0.938611C13.3057 0.938611 13.1699 0.804309 13.1699 0.636808C13.1699 0.469307 13.3042 0.333496 13.4732 0.333496Z" fill="#FECA7A"/>
<path d="M22.5114 8.04736H8.39453V8.55741H22.5114V8.04736Z" fill="#A7A9AC"/>
<path d="M22.5114 9.34375H8.39453V9.8538H22.5114V9.34375Z" fill="#A7A9AC"/>
<path d="M20.7458 10.6416H8.39453V11.1516H20.7458V10.6416Z" fill="#A7A9AC"/>
<path d="M6.75403 8.47754H4.56445V10.6671H6.75403V8.47754Z" stroke="#E6E7E8" stroke-miterlimit="10"/>
<path d="M4.63477 9.56101L5.32891 10.7214L7.18349 8.82009L6.8334 8.47754L5.42247 9.92317L5.05427 9.30901L4.63477 9.56101Z" fill="#EC827D"/>
<path d="M22.5114 13.8843H8.39453V14.3943H22.5114V13.8843Z" fill="#A7A9AC"/>
<path d="M22.5114 15.1807H8.39453V15.6907H22.5114V15.1807Z" fill="#A7A9AC"/>
<path d="M20.7458 16.4785H8.39453V16.9886H20.7458V16.4785Z" fill="#A7A9AC"/>
<path d="M6.75403 14.3145H4.56445V16.504H6.75403V14.3145Z" stroke="#E6E7E8" stroke-miterlimit="10"/>
<path d="M4.38281 15.3706L5.07696 16.531L6.93305 14.6297L6.58145 14.2871L5.17052 15.7327L4.80383 15.1186L4.38281 15.3706Z" fill="#EC827D"/>
<path d="M22.5114 19.5913H8.39453V20.1014H22.5114V19.5913Z" fill="#A7A9AC"/>
<path d="M22.5114 20.8877H8.39453V21.3977H22.5114V20.8877Z" fill="#A7A9AC"/>
<path d="M20.7458 22.1836H8.39453V22.6936H20.7458V22.1836Z" fill="#A7A9AC"/>
<path d="M6.75403 20.0215H4.56445V22.2111H6.75403V20.0215Z" stroke="#E6E7E8" stroke-miterlimit="10"/>
<path d="M4.63477 21.105L5.32891 22.2654L7.18349 20.3625L6.8334 20.0215L5.42247 21.4671L5.05427 20.853L4.63477 21.105Z" fill="#EC827D"/>
<path d="M22.5114 25.4282H8.39453V25.9383H22.5114V25.4282Z" fill="#A7A9AC"/>
<path d="M22.5114 26.7246H8.39453V27.2347H22.5114V26.7246Z" fill="#A7A9AC"/>
<path d="M20.7458 28.0225H8.39453V28.5325H20.7458V28.0225Z" fill="#A7A9AC"/>
<path d="M6.75403 25.8584H4.56445V28.048H6.75403V25.8584Z" stroke="#E6E7E8" stroke-miterlimit="10"/>
<path d="M4.38281 26.9145L5.07696 28.075L6.93305 26.1721L6.58145 25.8311L5.17052 27.2767L4.80383 26.6625L4.38281 26.9145Z" fill="#EC827D"/>
<path d="M22.5114 19.5913H8.39453V20.1014H22.5114V19.5913Z" fill="#A7A9AC"/>
<path d="M22.5114 20.8877H8.39453V21.3977H22.5114V20.8877Z" fill="#A7A9AC"/>
<path d="M20.7458 22.1836H8.39453V22.6936H20.7458V22.1836Z" fill="#A7A9AC"/>
<path d="M6.75403 20.0215H4.56445V22.2111H6.75403V20.0215Z" stroke="#E6E7E8" stroke-miterlimit="10"/>
</g>
<defs>
<clipPath id="clip0_2080_1169">
<rect width="27.0717" height="38" fill="white"/>
</clipPath>
</defs>
</svg>
