<svg width="29" height="38" viewBox="0 0 29 38" fill="none" xmlns="http://www.w3.org/2000/svg">
<g clip-path="url(#clip0_2289_1110)">
<path fill-rule="evenodd" clip-rule="evenodd" d="M28.1796 37.9702H0.81957C0.39957 37.9702 0.0595703 37.6202 0.0595703 37.1902V3.89523C0.0595703 3.46523 0.39957 3.11523 0.81957 3.11523H28.1846C28.6046 3.11523 28.9446 3.46523 28.9446 3.89523V37.1952C28.9446 37.6252 28.6046 37.9752 28.1846 37.9752L28.1796 37.9702Z" fill="#BEBEFA"/>
<path fill-rule="evenodd" clip-rule="evenodd" d="M25.6449 35.31H3.35488C3.01988 35.31 2.75488 35.04 2.75488 34.71V6.45498C2.75488 6.12498 3.02488 5.85498 3.35488 5.85498H25.6449C25.9799 5.85498 26.2449 6.12498 26.2449 6.45498V34.71C26.2449 35.04 25.9749 35.31 25.6449 35.31Z" fill="white"/>
<path d="M23.2397 28.085H10.5947V31.025H23.2397V28.085Z" fill="#D2D7D8"/>
<path d="M23.2397 10.1396H10.5947V13.0796H23.2397V10.1396Z" fill="#D2D7D8"/>
<path fill-rule="evenodd" clip-rule="evenodd" d="M4.80957 11.6098C4.80957 10.3548 5.82457 9.33984 7.07957 9.33984C8.33457 9.33984 9.34957 10.3548 9.34957 11.6098C9.34957 12.8648 8.33457 13.8798 7.07957 13.8798C5.82457 13.8798 4.80957 12.8648 4.80957 11.6098Z" fill="#EBEFF0"/>
<path d="M8.36922 11.0698L8.15422 10.8548C8.06922 10.7698 7.93422 10.7698 7.84922 10.8548L6.91922 11.7848L6.40422 11.2698C6.36422 11.2298 6.30922 11.2048 6.25422 11.2048C6.19422 11.2048 6.14422 11.2248 6.10422 11.2698L5.88922 11.4848C5.84922 11.5248 5.82422 11.5798 5.82422 11.6348C5.82422 11.6898 5.84422 11.7448 5.88922 11.7848L6.77422 12.6698C6.81422 12.7098 6.86922 12.7348 6.92422 12.7348C6.97922 12.7348 7.03422 12.7148 7.07422 12.6698L8.37422 11.3698C8.41422 11.3298 8.43922 11.2748 8.43922 11.2198C8.43922 11.1598 8.41922 11.1098 8.37422 11.0698H8.36922Z" fill="#FF8888"/>
<path d="M23.2397 16.1196H10.5947V19.0596H23.2397V16.1196Z" fill="#D2D7D8"/>
<path fill-rule="evenodd" clip-rule="evenodd" d="M4.80957 17.5898C4.80957 16.3348 5.82457 15.3198 7.07957 15.3198C8.33457 15.3198 9.34957 16.3348 9.34957 17.5898C9.34957 18.8448 8.33457 19.8598 7.07957 19.8598C5.82457 19.8598 4.80957 18.8448 4.80957 17.5898Z" fill="#EBEFF0"/>
<path d="M8.36922 17.0497L8.15422 16.8347C8.06922 16.7497 7.93422 16.7497 7.84922 16.8347L6.91922 17.7647L6.40422 17.2497C6.36422 17.2097 6.30922 17.1847 6.25422 17.1847C6.19422 17.1847 6.14422 17.2047 6.10422 17.2497L5.88922 17.4647C5.84922 17.5047 5.82422 17.5597 5.82422 17.6147C5.82422 17.6747 5.84422 17.7247 5.88922 17.7647L6.77422 18.6497C6.81422 18.6897 6.86922 18.7147 6.92422 18.7147C6.97922 18.7147 7.03422 18.6947 7.07422 18.6497L8.37422 17.3497C8.41422 17.3097 8.43922 17.2547 8.43922 17.1997C8.43922 17.1397 8.41922 17.0897 8.37422 17.0497H8.36922Z" fill="#FF8888"/>
<path d="M23.2397 22.1045H10.5947V25.0445H23.2397V22.1045Z" fill="#D2D7D8"/>
<path fill-rule="evenodd" clip-rule="evenodd" d="M4.80957 23.5747C4.80957 22.3197 5.82457 21.3047 7.07957 21.3047C8.33457 21.3047 9.34957 22.3197 9.34957 23.5747C9.34957 24.8297 8.33457 25.8447 7.07957 25.8447C5.82457 25.8447 4.80957 24.8297 4.80957 23.5747Z" fill="#EBEFF0"/>
<path d="M8.36922 23.0346L8.15422 22.8196C8.06922 22.7346 7.93422 22.7346 7.84922 22.8196L6.91922 23.7496L6.40422 23.2346C6.36422 23.1946 6.30922 23.1696 6.25422 23.1696C6.19422 23.1696 6.14422 23.1896 6.10422 23.2346L5.88922 23.4496C5.84922 23.4896 5.82422 23.5446 5.82422 23.5996C5.82422 23.6596 5.84422 23.7096 5.88922 23.7496L6.77422 24.6346C6.81422 24.6746 6.86922 24.6996 6.92422 24.6996C6.97922 24.6996 7.03422 24.6796 7.07422 24.6346L8.37422 23.3346C8.41422 23.2946 8.43922 23.2396 8.43922 23.1846C8.43922 23.1246 8.41922 23.0746 8.37422 23.0346H8.36922Z" fill="#FF8888"/>
<path fill-rule="evenodd" clip-rule="evenodd" d="M4.80957 29.5547C4.80957 28.2997 5.82457 27.2847 7.07957 27.2847C8.33457 27.2847 9.34957 28.2997 9.34957 29.5547C9.34957 30.8097 8.33457 31.8247 7.07957 31.8247C5.82457 31.8247 4.80957 30.8097 4.80957 29.5547Z" fill="#EBEFF0"/>
<path d="M8.36934 29.0146L8.15434 28.7996C8.06934 28.7146 7.93434 28.7146 7.84934 28.7996L6.91934 29.7296L6.40434 29.2146C6.32434 29.1346 6.17934 29.1346 6.09934 29.2146L5.88434 29.4296C5.84434 29.4696 5.81934 29.5246 5.81934 29.5796C5.81934 29.6396 5.83934 29.6896 5.88434 29.7296L6.76934 30.6146C6.80934 30.6546 6.86434 30.6796 6.91934 30.6796C6.97434 30.6796 7.02934 30.6596 7.06934 30.6146L8.36934 29.3146C8.40934 29.2746 8.43434 29.2196 8.43434 29.1646C8.43434 29.1046 8.41434 29.0546 8.36934 29.0146Z" fill="#FF8888"/>
<path fill-rule="evenodd" clip-rule="evenodd" d="M21.9549 5.16496H7.04492V2.82496C7.04492 2.62496 7.19492 2.45996 7.38492 2.45996H21.6149C21.7999 2.45996 21.9549 2.62496 21.9549 2.82496V5.16496Z" fill="#94A3A4"/>
<path d="M21.9549 5.16504H7.04492V6.20504H21.9549V5.16504Z" fill="#808C8C"/>
<path d="M16.1392 3.95787C17.0453 3.05185 17.0453 1.58291 16.1392 0.676895C15.2332 -0.229121 13.7643 -0.229121 12.8583 0.676895C11.9522 1.58291 11.9522 3.05185 12.8583 3.95787C13.7643 4.86389 15.2332 4.86389 16.1392 3.95787Z" fill="#94A3A4"/>
<path d="M15.3972 3.21541C15.8932 2.71944 15.8932 1.91532 15.3972 1.41936C14.9012 0.923391 14.0971 0.923391 13.6012 1.41936C13.1052 1.91532 13.1052 2.71944 13.6012 3.21541C14.0971 3.71137 14.9012 3.71137 15.3972 3.21541Z" fill="white"/>
</g>
<defs>
<clipPath id="clip0_2289_1110">
<rect width="29" height="38" fill="white"/>
</clipPath>
</defs>
</svg>
