<svg width="92" height="79" viewBox="0 0 92 79" fill="none" xmlns="http://www.w3.org/2000/svg">
<g clip-path="url(#clip0_2277_1110)">
<path d="M61.1904 0H86.0604C87.1604 0 88.0604 0.9 88.0604 2V78.98H59.1904V2C59.1904 0.9 60.0904 0 61.1904 0Z" fill="#89EFEF"/>
<path d="M71.5206 5.52002H88.0506V8.29002H71.5206C70.7606 8.29002 70.1406 7.67002 70.1406 6.91002C70.1406 6.15002 70.7606 5.53002 71.5206 5.53002V5.52002Z" fill="#98CFFF"/>
<path d="M75.5206 12.3599H88.0506V15.1299H75.5206C74.7606 15.1299 74.1406 14.5099 74.1406 13.7499C74.1406 12.9899 74.7606 12.3699 75.5206 12.3699V12.3599Z" fill="#98CFFF"/>
<path d="M75.5206 19.1899H88.0506V21.9599H75.5206C74.7606 21.9599 74.1406 21.3399 74.1406 20.5799C74.1406 19.8199 74.7606 19.1999 75.5206 19.1999V19.1899Z" fill="#98CFFF"/>
<path d="M71.5206 26.0298H88.0506V28.7998H71.5206C70.7606 28.7998 70.1406 28.1798 70.1406 27.4198C70.1406 26.6598 70.7606 26.0398 71.5206 26.0398V26.0298Z" fill="#98CFFF"/>
<path d="M75.5206 32.8599H88.0506V35.6299H75.5206C74.7606 35.6299 74.1406 35.0099 74.1406 34.2499C74.1406 33.4899 74.7606 32.8699 75.5206 32.8699V32.8599Z" fill="#98CFFF"/>
<path d="M75.5206 39.6899H88.0506V42.4599H75.5206C74.7606 42.4599 74.1406 41.8399 74.1406 41.0799C74.1406 40.3199 74.7606 39.6999 75.5206 39.6999V39.6899Z" fill="#98CFFF"/>
<path d="M71.5206 46.5298H88.0506V49.2998H71.5206C70.7606 49.2998 70.1406 48.6798 70.1406 47.9198C70.1406 47.1598 70.7606 46.5398 71.5206 46.5398V46.5298Z" fill="#98CFFF"/>
<path d="M75.5206 53.3599H88.0506V56.1299H75.5206C74.7606 56.1299 74.1406 55.5099 74.1406 54.7499C74.1406 53.9899 74.7606 53.3699 75.5206 53.3699V53.3599Z" fill="#98CFFF"/>
<path d="M75.5206 60.2002H88.0506V62.9702H75.5206C74.7606 62.9702 74.1406 62.3502 74.1406 61.5902C74.1406 60.8302 74.7606 60.2102 75.5206 60.2102V60.2002Z" fill="#98CFFF"/>
<path d="M71.5206 67.0298H88.0506V69.7998H71.5206C70.7606 69.7998 70.1406 69.1798 70.1406 68.4198C70.1406 67.6598 70.7606 67.0398 71.5206 67.0398V67.0298Z" fill="#98CFFF"/>
<path d="M75.5206 73.8701H88.0506V76.6401H75.5206C74.7606 76.6401 74.1406 76.0201 74.1406 75.2601C74.1406 74.5001 74.7606 73.8801 75.5206 73.8801V73.8701Z" fill="#98CFFF"/>
<path d="M16.4597 26.5099C14.3897 26.5099 11.4997 26.2999 9.51969 25.7099C8.28969 25.3399 6.87969 24.7999 5.07969 23.9999C4.85969 23.8999 4.74969 23.6399 4.84969 23.4099C4.94969 23.1899 5.20969 23.0899 5.43969 23.1799C7.17969 23.9499 8.58969 24.4999 9.76969 24.8499C11.6597 25.4099 14.4497 25.6199 16.4597 25.6199H16.4997C19.4097 25.6199 21.6997 25.1699 23.7697 24.1799C23.4697 24.0599 23.1597 23.8699 22.9397 23.5799C22.7397 23.3099 22.6597 22.9999 22.7097 22.6799C22.8397 21.7799 24.1597 21.2399 24.4197 21.1399C25.3197 20.7999 26.2197 20.7899 26.8197 21.0999C27.1697 21.2799 27.3697 21.5799 27.3997 21.9399C27.4397 22.6099 26.8297 23.3199 26.3997 23.6499C29.5697 23.6999 32.7097 22.6799 35.2397 20.7599C35.4397 20.6099 35.7097 20.6499 35.8597 20.8399C36.0097 21.0299 35.9697 21.3099 35.7797 21.4599C32.7597 23.7599 28.9097 24.8399 25.1297 24.4599C22.6797 25.8799 20.0197 26.4899 16.4997 26.4999H16.4597V26.5099ZM25.7697 21.7599C25.4797 21.7599 25.1297 21.8199 24.7297 21.9699C24.0797 22.2099 23.6197 22.5999 23.5897 22.7999C23.5797 22.8899 23.5897 22.9599 23.6597 23.0399C23.8197 23.2599 24.2397 23.4499 24.7097 23.5099C24.7897 23.5199 24.8697 23.5299 24.9397 23.5399C25.2397 23.3599 25.5397 23.1599 25.8297 22.9599C26.1497 22.7299 26.5297 22.2399 26.5197 21.9899C26.5197 21.9699 26.5197 21.9299 26.4197 21.8799C26.2797 21.8099 26.0597 21.7499 25.7797 21.7499L25.7697 21.7599Z" fill="#729BED"/>
<path d="M78.4397 33.2898C77.1597 33.2898 75.9297 33.4698 74.7597 33.7998C73.2397 25.6298 66.0797 19.4398 57.4697 19.4398C53.5197 19.4398 49.8697 20.7398 46.9397 22.9398C46.4597 23.2498 45.9997 23.5898 45.5497 23.9398C41.9097 19.4198 36.3297 16.5298 30.0697 16.5298C23.1297 16.5298 17.0197 20.0898 13.4697 25.4798C14.5197 25.5698 15.5697 25.6098 16.4597 25.6098H16.4997C19.4097 25.6098 21.6997 25.1598 23.7697 24.1698C23.4697 24.0498 23.1597 23.8598 22.9397 23.5698C22.7397 23.2998 22.6597 22.9898 22.7097 22.6698C22.8397 21.7698 24.1597 21.2298 24.4197 21.1298C25.3197 20.7898 26.2197 20.7798 26.8197 21.0898C27.1697 21.2698 27.3697 21.5698 27.3997 21.9298C27.4397 22.5998 26.8297 23.3098 26.3997 23.6398C29.5697 23.6898 32.7097 22.6698 35.2397 20.7498C35.4397 20.5998 35.7097 20.6398 35.8597 20.8298C36.0097 21.0298 35.9697 21.2998 35.7797 21.4498C32.7597 23.7498 28.9097 24.8298 25.1297 24.4498C22.6797 25.8698 20.0197 26.4798 16.4997 26.4898H16.4597C15.4197 26.4898 14.1797 26.4398 12.9397 26.3098C12.4897 27.0798 12.0797 27.8798 11.7397 28.7098C11.1597 30.5498 10.8397 32.4998 10.8397 34.5298C10.8397 35.5298 10.9197 36.5098 11.0597 37.4698C10.3097 37.5798 9.57969 37.7598 8.87969 37.9898C3.78969 39.9598 0.179688 44.8998 0.179688 50.6798C0.179688 56.5398 4.36969 61.1398 9.50969 63.5298C15.2397 66.1898 20.5697 67.3498 26.4897 68.3598C31.6997 69.2398 36.9897 69.6598 42.2697 69.6598C49.4797 69.6598 56.7097 68.8898 63.7197 67.2098C69.7497 65.7698 75.6097 64.0698 81.0097 60.9898C84.1197 59.2198 87.5397 56.7398 89.5797 53.7098C91.0097 51.5798 91.7997 49.0498 91.8297 46.4898C91.7297 39.1898 85.7797 33.2998 78.4497 33.2998L78.4397 33.2898Z" fill="#EEF7FF"/>
<path d="M24.9292 23.5498C25.2292 23.3698 25.5292 23.1698 25.8192 22.9698C26.1392 22.7398 26.5192 22.2498 26.5092 21.9998C26.5092 21.9798 26.5092 21.9398 26.4092 21.8898C26.2692 21.8198 26.0492 21.7598 25.7692 21.7598C25.4892 21.7598 25.1292 21.8198 24.7292 21.9698C24.0792 22.2098 23.6192 22.5998 23.5892 22.7998C23.5792 22.8898 23.5892 22.9598 23.6592 23.0398C23.8192 23.2598 24.2392 23.4498 24.7092 23.5098C24.7892 23.5198 24.8692 23.5298 24.9392 23.5398L24.9292 23.5498Z" fill="#EEF7FF"/>
<path d="M9.76922 24.8498C8.58922 24.4998 7.17922 23.9498 5.43922 23.1798C5.21922 23.0798 4.94922 23.1798 4.84922 23.4098C4.74922 23.6298 4.84922 23.8998 5.07922 23.9998C6.87922 24.7998 8.28922 25.3398 9.51922 25.7098C10.5092 26.0098 11.7192 26.2098 12.9492 26.3298C13.1192 26.0398 13.2892 25.7598 13.4792 25.4898C12.1592 25.3698 10.8292 25.1698 9.77922 24.8598L9.76922 24.8498Z" fill="white"/>
<path d="M16.4995 26.5098C20.0195 26.5098 22.6795 25.8898 25.1295 24.4698C28.8995 24.8498 32.7595 23.7698 35.7795 21.4698C35.9795 21.3198 36.0095 21.0398 35.8595 20.8498C35.7095 20.6498 35.4295 20.6198 35.2395 20.7698C32.7095 22.6998 29.5595 23.7098 26.3995 23.6598C26.8295 23.3298 27.4495 22.6198 27.3995 21.9498C27.3795 21.5898 27.1695 21.2898 26.8195 21.1098C26.2195 20.7898 25.3195 20.8098 24.4195 21.1498C24.1595 21.2498 22.8395 21.7898 22.7095 22.6898C22.6595 23.0098 22.7395 23.3198 22.9395 23.5898C23.1595 23.8798 23.4695 24.0698 23.7695 24.1898C21.6995 25.1798 19.4095 25.6198 16.4995 25.6298H16.4595C15.5695 25.6298 14.5195 25.5898 13.4695 25.4998C13.2895 25.7798 13.1095 26.0598 12.9395 26.3398C14.1695 26.4698 15.4195 26.5198 16.4595 26.5198H16.4995V26.5098ZM23.6495 23.0498C23.5895 22.9698 23.5695 22.8998 23.5795 22.8098C23.6095 22.5998 24.0795 22.2198 24.7195 21.9798C25.1195 21.8298 25.4695 21.7698 25.7595 21.7698C26.0495 21.7698 26.2595 21.8198 26.3995 21.8998C26.4995 21.9498 26.4995 21.9898 26.4995 22.0098C26.5195 22.2598 26.1395 22.7498 25.8095 22.9798C25.5195 23.1898 25.2195 23.3798 24.9195 23.5598C24.8395 23.5598 24.7595 23.5398 24.6895 23.5298C24.2295 23.4698 23.8095 23.2798 23.6395 23.0598L23.6495 23.0498Z" fill="#729BED"/>
<path d="M65.7097 37.8297C65.7097 35.1597 63.5397 32.9897 60.8697 32.9897H59.8097C57.1397 32.9897 54.9697 35.1597 54.9697 37.8297V41.3197H65.6997V37.8297H65.7097Z" fill="#89EFEF"/>
<path d="M54.9795 55.5398C54.9795 58.2098 57.1495 60.3798 59.8195 60.3798H60.8795C63.5495 60.3798 65.7195 58.2098 65.7195 55.5398V52.0498H54.9895V55.5398H54.9795Z" fill="#89EFEF"/>
<path d="M51.4894 41.3198C48.8194 41.3198 46.6494 43.4898 46.6494 46.1598V47.2198C46.6494 49.8898 48.8194 52.0598 51.4894 52.0598H54.9794V41.3298H51.4894V41.3198Z" fill="#FFB6D7"/>
<path d="M69.199 41.3196H65.709V52.0496H69.199C71.869 52.0496 74.039 49.8796 74.039 47.2096V46.1496C74.039 43.4796 71.869 41.3096 69.199 41.3096V41.3196Z" fill="#FFB6D7"/>
<path d="M65.7095 41.3198H54.9795V52.0498H65.7095V41.3198Z" fill="#89ABCA"/>
<path d="M23.29 32.34C24.19 33.81 26.43 34.95 28.14 34.63C30.21 34.24 31.91 32.69 32.97 30.98" stroke="#729BED" stroke-width="0.89" stroke-linecap="round" stroke-linejoin="round"/>
<path d="M22.7398 29.0699C23.0049 29.0699 23.2198 28.855 23.2198 28.5899C23.2198 28.3248 23.0049 28.1099 22.7398 28.1099C22.4747 28.1099 22.2598 28.3248 22.2598 28.5899C22.2598 28.855 22.4747 29.0699 22.7398 29.0699Z" fill="#729BED" stroke="#729BED" stroke-width="0.22" stroke-miterlimit="10"/>
<path d="M31.8897 27.4697C31.8897 27.7397 31.6697 27.9497 31.4097 27.9497C31.1497 27.9497 30.9297 27.7297 30.9297 27.4697C30.9297 27.2097 31.1497 26.9897 31.4097 26.9897C31.6697 26.9897 31.8897 27.2097 31.8897 27.4697Z" fill="#729BED" stroke="#729BED" stroke-width="0.22" stroke-miterlimit="10"/>
</g>
<defs>
<clipPath id="clip0_2277_1110">
<rect width="92" height="78.98" fill="white"/>
</clipPath>
</defs>
</svg>
