<svg width="26" height="38" viewBox="0 0 26 38" fill="none" xmlns="http://www.w3.org/2000/svg">
<g clip-path="url(#clip0_2080_1275)">
<path d="M14.7601 32.1899C19.0501 32.4499 22.0801 33.5099 22.0801 34.8299C22.0801 36.3099 17.8201 37.4999 12.5801 37.4999C7.34008 37.4999 3.08008 36.3099 3.08008 34.8299C3.08008 33.5399 6.21008 32.4899 10.4401 32.2199L12.5801 35.0299C12.5801 35.0299 13.5401 33.7999 14.7601 32.1899Z" fill="#ECF0F1"/>
<path d="M25.0996 11.53C24.5996 5.96 20.3096 1.2 14.7896 0.2C14.0596 0.07 13.3196 0 12.5796 0C11.8396 0 11.0996 0.07 10.3696 0.2C4.83956 1.2 0.549564 5.96 0.0495636 11.53C-0.540436 18.13 4.47956 24.16 8.09956 29.17C10.6396 32.69 12.5696 35.1 12.5696 35.1C12.5696 35.1 14.5096 32.69 17.0396 29.17C20.6496 24.16 25.6796 18.13 25.0896 11.53H25.0996Z" fill="#FF8888"/>
<path d="M21.8695 12.82C21.8695 7.65002 17.7395 3.52002 12.5695 3.52002C7.39953 3.52002 3.26953 7.65002 3.26953 12.82C3.26953 17.99 7.39953 22.12 12.5695 22.12C17.7395 22.12 21.8695 17.9 21.8695 12.82Z" fill="white"/>
<path d="M13.2099 16.86L12.3599 17.71C11.7099 18.36 10.8799 18.68 10.0299 18.68C9.17992 18.68 8.33992 18.36 7.69992 17.71C6.40992 16.42 6.40992 14.31 7.69992 13.01L10.2499 10.46L14.9299 15.14L13.2099 16.86Z" fill="#89EFEF"/>
<path d="M17.4605 12.6002L14.9105 15.1502L10.2305 10.4702L12.7805 7.9202C13.4305 7.2702 14.2605 6.9502 15.1105 6.9502C15.9605 6.9502 16.8005 7.2702 17.4405 7.9202C18.7305 9.2102 18.7505 11.3102 17.4605 12.6002Z" fill="#E2EEF7"/>
<path d="M13.4103 8.99025C13.2903 8.87025 13.2903 8.67025 13.4103 8.55025C13.7003 8.26025 14.3103 8.02025 14.9603 7.99025C15.7303 7.94025 16.3903 8.13025 16.8203 8.55025C16.9403 8.67025 16.9403 8.87025 16.8203 8.99025C16.7003 9.11025 16.5103 9.09025 16.3903 8.97025C15.6903 8.27025 14.1903 8.61025 13.8403 8.97025C13.7203 9.09025 13.5203 9.09025 13.4103 8.99025Z" fill="white"/>
</g>
<defs>
<clipPath id="clip0_2080_1275">
<rect width="25.15" height="37.5" fill="white"/>
</clipPath>
</defs>
</svg>
