<svg width="19" height="19" viewBox="0 0 19 19" fill="none" xmlns="http://www.w3.org/2000/svg">
<circle cx="9.5" cy="9.5" r="9.5" fill="#FFB6D7"/>
<path d="M8.68626 11.8442L8.76956 11.8581V11.9414V13.1632V13.2674H7.80461C7.42974 13.2674 7.12428 13.5728 7.12428 13.9477C7.12428 14.3226 7.42974 14.628 7.80461 14.628H8.76956V15.5097C8.76956 15.8845 9.07502 16.19 9.44989 16.19C9.82476 16.19 10.1302 15.8845 10.1302 15.5097V14.628H11.0952C11.47 14.628 11.7755 14.3226 11.7755 13.9477C11.7755 13.5728 11.47 13.2674 11.0952 13.2674H10.1302V11.8512L10.2135 11.8373C10.4634 11.7887 10.6995 11.7262 10.9424 11.6429H10.9702L11.0049 11.6221C11.234 11.5388 11.4562 11.4347 11.6714 11.3097C12.0324 11.1014 12.3378 10.8654 12.6016 10.6016C13.2472 9.95599 13.6707 9.14376 13.8304 8.24823C13.9067 7.81782 13.9206 7.40824 13.879 7.00559C13.879 6.97783 13.879 6.957 13.8651 6.92923V6.86675C13.8442 6.76262 13.8304 6.66543 13.8095 6.56824C13.8095 6.54047 13.7956 6.50576 13.7887 6.47799L13.7748 6.41552C13.7471 6.31138 13.7332 6.22808 13.7054 6.14477C13.6985 6.11701 13.6915 6.09618 13.6776 6.06841L13.6568 6.01287C13.6221 5.91568 13.5943 5.81849 13.5527 5.72825L13.5318 5.67965L13.511 5.638C13.4624 5.53387 13.4138 5.42974 13.3583 5.32561L13.3375 5.29089C13.1292 4.91602 12.8793 4.5828 12.5877 4.29123L12.553 4.25652C12.3933 4.09685 12.2128 3.95107 12.0185 3.81223L11.9768 3.78446C11.9768 3.78446 11.949 3.76363 11.9352 3.75669C11.7616 3.63867 11.5603 3.5276 11.3312 3.41653L11.2826 3.3957C11.2826 3.3957 11.241 3.37487 11.2201 3.36793C11.0257 3.28463 10.8175 3.20826 10.5815 3.14578H10.5537C10.5537 3.14578 10.4912 3.12496 10.4565 3.11107C10.2343 3.06248 10.0122 3.02777 9.79005 3.00694C9.76228 3.00694 9.74146 3.00694 9.71369 3.00694H9.67204H9.59567C9.54708 3.00694 9.49154 3 9.44295 3C9.29022 3 9.13055 3.00694 8.97783 3.02777C8.73485 3.05554 8.51271 3.09719 8.26973 3.16661L8.22808 3.18049C8.22808 3.18049 8.19337 3.18744 8.17948 3.19438C7.97122 3.25686 7.7699 3.33322 7.55469 3.43735C7.49916 3.46512 7.45751 3.47901 7.42279 3.49983C7.22842 3.59702 7.04098 3.71504 6.86048 3.83999C6.8466 3.84694 6.83272 3.86082 6.81883 3.86776C6.81189 3.86776 6.80495 3.87471 6.79106 3.88165L6.76329 3.90942C6.43702 4.15933 6.15239 4.44396 5.90942 4.75635L5.86082 4.80495C5.86082 4.80495 5.86082 4.81189 5.86082 4.81883C5.85388 4.83272 5.84694 4.8466 5.83305 4.86048C5.70115 5.04098 5.59008 5.22842 5.49289 5.41585C5.47206 5.45751 5.45124 5.49916 5.43735 5.53387C5.32628 5.76296 5.24992 5.97122 5.18744 6.17254C5.18744 6.19337 5.18049 6.20725 5.17355 6.22808L5.15967 6.27667C5.09719 6.51271 5.04859 6.73485 5.02777 6.95006V6.98477C5.00694 7.13749 5 7.29716 5 7.44989C5 7.47072 5 7.49154 5 7.51931C5 7.54708 5 7.56791 5.00694 7.59567C5.00694 7.7484 5.02777 7.89418 5.04859 8.02608C5.06248 8.15798 5.07636 8.26212 5.10413 8.36625C5.13884 8.52592 5.18049 8.67864 5.22909 8.81748L5.24297 8.86608C5.2638 8.94244 5.29157 9.01881 5.31934 9.08823C5.37487 9.22707 5.44429 9.37285 5.54148 9.55335L5.56231 9.58806C5.59702 9.65054 5.62479 9.70607 5.6595 9.76855C5.74281 9.90739 5.83999 10.0462 5.96495 10.199C6.02049 10.2684 6.07603 10.3378 6.13156 10.4003C6.15933 10.4281 6.18016 10.4628 6.20793 10.4905C6.23569 10.5252 6.26346 10.5669 6.29817 10.5947C6.56197 10.8585 6.86743 11.0945 7.20759 11.2889C7.44362 11.4208 7.66577 11.5318 7.89486 11.6152L7.92957 11.629H7.95734C8.20031 11.7262 8.43634 11.7887 8.66543 11.8304H8.6932L8.68626 11.8442ZM9.44989 4.26346C11.2062 4.26346 12.6363 5.69354 12.6363 7.44989C12.6363 9.20624 11.2062 10.6363 9.44989 10.6363C7.69354 10.6363 6.26346 9.20624 6.26346 7.44989C6.26346 5.69354 7.69354 4.26346 9.44989 4.26346Z" fill="white"/>
</svg>
