<svg width="19" height="19" viewBox="0 0 19 19" fill="none" xmlns="http://www.w3.org/2000/svg">
<circle cx="9.5" cy="9.5" r="9.5" fill="#89EFEF"/>
<path d="M13.6041 7.47126C15.299 9.16617 15.299 11.9097 13.6041 13.598C11.9092 15.2929 9.16568 15.2929 7.47736 13.598C5.93413 12.0548 5.79564 9.64101 7.06188 7.9461L5.42632 6.31054V6.97004C5.42632 7.27341 5.1823 7.52402 4.87234 7.52402C4.56237 7.52402 4.31836 7.28 4.31836 6.97004V4.95856C4.31836 4.95856 4.31836 4.94537 4.31836 4.93878V4.89261C4.31836 4.89261 4.31836 4.87942 4.31836 4.87283C4.31836 4.72114 4.37771 4.58265 4.48323 4.48372C4.58216 4.3848 4.72065 4.31885 4.87234 4.31885C4.87893 4.31885 4.88553 4.31885 4.89212 4.31885H4.93829C4.93829 4.31885 4.95148 4.31885 4.95807 4.31885H6.96955C7.27292 4.31885 7.52353 4.56286 7.52353 4.87283C7.52353 5.18279 7.27951 5.42681 6.96955 5.42681H6.31005L7.94561 7.06237C9.64052 5.79613 12.0543 5.93462 13.5975 7.47785L13.6041 7.47126ZM8.30174 12.7736C9.535 14.0069 11.5399 14.0069 12.7731 12.7736C14.0064 11.5404 14.0064 9.53549 12.7731 8.30223C11.5399 7.06896 9.535 7.06896 8.30174 8.30223C7.06847 9.53549 7.06847 11.5404 8.30174 12.7736Z" fill="white"/>
</svg>
