<svg width="38" height="38" viewBox="0 0 38 38" fill="none" xmlns="http://www.w3.org/2000/svg">
<path d="M35.9601 7.03412C35.9601 5.19412 34.4691 3.70312 32.6291 3.70312H5.37006C3.53106 3.70312 2.03906 5.19412 2.03906 7.03412V14.5931H35.9601V7.03412Z" fill="#FF6464"/>
<path d="M2.04102 14.5938V34.1687C2.04102 36.0087 3.53202 37.4998 5.37202 37.4998H32.632C34.471 37.4998 35.963 36.0087 35.963 34.1687V14.5938H2.04102Z" fill="#FFF5F5"/>
<path d="M7.85372 0.5H6.55472C6.04972 0.5 5.63672 0.914 5.63672 1.418V7.851C5.63672 8.356 6.04972 8.769 6.55472 8.769H7.85272C8.35772 8.769 8.77072 8.355 8.77072 7.851V1.418C8.77072 0.914 8.35772 0.5 7.85372 0.5Z" fill="#9B9B9B"/>
<path d="M15.067 0.5C14.205 0.5 13.5 1.126 13.5 1.893V7.376C13.5 8.143 14.205 8.769 15.067 8.769C15.929 8.769 16.634 8.143 16.634 7.376V1.893C16.634 1.126 15.929 0.5 15.067 0.5Z" fill="#9B9B9B"/>
<path d="M22.9322 0.5C22.0712 0.5 21.3652 1.126 21.3652 1.893V7.376C21.3652 8.143 22.0712 8.769 22.9322 8.769C23.7942 8.769 24.5002 8.143 24.5002 7.376V1.893C24.5002 1.126 23.7942 0.5 22.9322 0.5Z" fill="#9B9B9B"/>
<path d="M31.4445 0.5H30.1465C29.6415 0.5 29.2285 0.914 29.2285 1.418V7.851C29.2285 8.356 29.6415 8.769 30.1465 8.769H31.4445C31.9495 8.769 32.3625 8.355 32.3625 7.851V1.418C32.3625 0.914 31.9495 0.5 31.4445 0.5Z" fill="#9B9B9B"/>
<path d="M14.7627 22.0489C14.7627 21.2339 14.1117 20.6239 13.2557 20.5829C11.9737 20.5009 10.3648 21.3359 9.89675 21.7429L9.18475 18.9339C10.3048 18.1189 12.0758 17.5489 13.5008 17.6099C17.7758 17.8339 19.2007 21.5799 16.7577 24.9799L13.8877 29.4179H18.2038V32.3709H8.59375L14.0308 23.7379C14.8028 22.6389 14.7627 22.0489 14.7627 22.0489Z" fill="#9B9B9B"/>
<path d="M25.2742 20.581H19.4102V17.832H29.4062L23.4622 32.369H20.3272L25.2742 20.581Z" fill="#9B9B9B"/>
</svg>
