<svg width="38" height="38" viewBox="0 0 38 38" fill="none" xmlns="http://www.w3.org/2000/svg">
<g clip-path="url(#clip0_1081_2976)">
<path d="M37.5467 11.4706C37.5372 11.2268 37.3641 11.0093 37.1656 10.9903C37.1656 10.9903 36.8669 10.9629 36.5682 10.9354C36.2694 10.9133 35.9718 10.8932 35.9718 10.8932C35.9718 10.8932 35.9274 10.5597 35.8694 10.2303C35.7913 9.90415 35.7121 9.57904 35.7121 9.57904C35.7121 9.57904 35.691 9.49671 35.6614 9.37532C35.6329 9.25288 35.5696 9.09665 35.5158 8.93726C35.4598 8.77999 35.4049 8.62165 35.3627 8.50132C35.3247 8.38204 35.2878 8.30604 35.2878 8.30604C35.2878 8.30604 35.5327 8.13926 35.7786 7.9746C36.0203 7.80149 36.2631 7.62943 36.2631 7.62943C36.4183 7.5186 36.4616 7.24204 36.3581 7.02038C36.3581 7.02038 36.3169 6.93382 36.2578 6.8061C36.1924 6.68049 36.0932 6.52004 35.9992 6.35643C35.9021 6.19387 35.8061 6.03132 35.7332 5.91099C35.6646 5.78854 35.6087 5.71254 35.6087 5.71254C35.4651 5.5141 35.2012 5.41488 35.0271 5.4951C35.0271 5.4951 34.7547 5.61965 34.4824 5.74526C34.2153 5.87615 33.9483 6.00599 33.9483 6.00599C33.9778 5.98065 33.0711 4.99371 33.0711 4.99371C33.0711 4.99371 32.0821 4.08699 32.0578 4.1176C32.0578 4.1176 32.1876 3.84949 32.3196 3.58138C32.4431 3.3101 32.5687 3.03882 32.5687 3.03882C32.6478 2.8636 32.5497 2.59971 32.3512 2.45721C32.3512 2.45721 32.2752 2.40126 32.1528 2.33054C32.0324 2.25876 31.8678 2.16165 31.7073 2.0656C31.5427 1.97165 31.3822 1.87137 31.2556 1.80804C31.1289 1.74682 31.0423 1.70671 31.0423 1.70671C30.8207 1.60221 30.5441 1.64549 30.4333 1.80065C30.4333 1.80065 30.2612 2.04343 30.0892 2.28621C29.9224 2.5311 29.7567 2.77704 29.7567 2.77704C29.7567 2.77704 29.6807 2.73904 29.5603 2.70104C29.4421 2.65882 29.2838 2.60393 29.1254 2.54799C28.9671 2.49415 28.8098 2.43187 28.6884 2.40232C28.5671 2.37276 28.4847 2.35165 28.4847 2.35165C28.4847 2.35165 28.1596 2.27249 27.8334 2.19332C27.5031 2.13737 27.1706 2.09304 27.1706 2.09304C27.1706 2.09304 27.1484 1.79432 27.1283 1.49665C27.0998 1.19687 27.0724 0.898153 27.0724 0.898153C27.0544 0.699708 26.8381 0.526597 26.5942 0.518153C26.5942 0.518153 26.2174 0.501264 25.8406 0.484375C25.4648 0.502319 25.0879 0.518153 25.0879 0.518153C24.8441 0.527653 24.6267 0.699708 24.6087 0.898153C24.6087 0.898153 24.5813 1.19687 24.5528 1.49665C24.5317 1.79537 24.5095 2.0941 24.5095 2.0941C24.5095 2.0941 24.177 2.13737 23.8477 2.19332C23.5215 2.27354 23.1964 2.35165 23.1964 2.35165C23.1964 2.35165 23.1141 2.37276 22.9916 2.40232C22.8713 2.43187 22.714 2.49521 22.5546 2.54799C22.3973 2.60287 22.2379 2.65776 22.1208 2.70104C22.0004 2.73904 21.9244 2.77704 21.9244 2.77704C21.9244 2.77704 21.7587 2.5311 21.5919 2.28621C21.4199 2.04343 21.2478 1.80065 21.2478 1.80065C21.137 1.64549 20.8604 1.60221 20.6388 1.70671C20.6388 1.70671 20.5533 1.74682 20.4245 1.80804C20.2989 1.87137 20.1384 1.97165 19.9748 2.0656C19.8112 2.16165 19.6487 2.25771 19.5262 2.32949C19.4048 2.40021 19.3278 2.45615 19.3278 2.45615C19.1293 2.59865 19.0312 2.86254 19.1114 3.03776C19.1114 3.03776 19.2349 3.30904 19.3605 3.58138C19.4903 3.84843 19.6212 4.11654 19.6212 4.11654C19.5959 4.08593 18.6079 4.99265 18.6079 4.99265C18.6079 4.99265 17.7012 5.98065 17.7318 6.00493C17.7318 6.00493 17.4637 5.8751 17.1956 5.74421C16.9243 5.61965 16.653 5.4951 16.653 5.4951C16.4778 5.41488 16.2139 5.5141 16.0703 5.71254C16.0703 5.71254 16.0154 5.78854 15.9458 5.91099C15.8729 6.03237 15.7769 6.19493 15.6798 6.35643C15.5858 6.52004 15.4845 6.68049 15.4222 6.8061C15.361 6.93488 15.3209 7.02038 15.3209 7.02038C15.2164 7.24204 15.2597 7.51754 15.4148 7.62943C15.4148 7.62943 15.6576 7.80254 15.9014 7.9746C16.1453 8.14032 16.3923 8.3071 16.3923 8.3071C16.3923 8.3071 16.3543 8.38204 16.3163 8.50132C16.2741 8.6206 16.2192 8.77893 16.1643 8.93726C16.1104 9.0956 16.0471 9.25182 16.0176 9.37426C15.988 9.49671 15.9669 9.57799 15.9669 9.57799C15.9669 9.57799 15.8888 9.90415 15.8075 10.2293C15.7516 10.5597 15.7083 10.8922 15.7083 10.8922C15.7083 10.8922 15.4096 10.9143 15.1119 10.9344C14.8121 10.9618 14.5134 10.9893 14.5134 10.9893C14.3149 11.0083 14.1418 11.2247 14.1334 11.4695C14.1334 11.4695 14.1165 11.8464 14.0996 12.2222C14.1176 12.5979 14.1334 12.9748 14.1334 12.9748C14.1429 13.2197 14.3149 13.4371 14.5134 13.455C14.5134 13.455 14.8121 13.4825 15.1119 13.5099C15.4096 13.5321 15.7083 13.5522 15.7083 13.5522C15.7083 13.5522 15.7526 13.8847 15.8075 14.215C15.8877 14.5412 15.9669 14.8663 15.9669 14.8663C15.9669 14.8663 15.988 14.9476 16.0176 15.07C16.0461 15.1914 16.1104 15.3477 16.1643 15.507C16.2192 15.6654 16.2741 15.8237 16.3163 15.943C16.3543 16.0623 16.3923 16.1383 16.3923 16.1383C16.3923 16.1383 16.1474 16.305 15.9014 16.4708C15.6597 16.6428 15.4148 16.8159 15.4148 16.8159C15.2607 16.9257 15.2164 17.2023 15.3209 17.425C15.3209 17.425 15.361 17.5105 15.4222 17.6382C15.4856 17.7649 15.5858 17.9253 15.6798 18.0889C15.7769 18.2504 15.8729 18.414 15.9458 18.5354C16.0154 18.6579 16.0703 18.7339 16.0703 18.7339C16.2139 18.9323 16.4778 19.0305 16.653 18.9513C16.653 18.9513 16.9243 18.8257 17.1966 18.7022C17.4637 18.5713 17.7318 18.4404 17.7318 18.4404C17.7012 18.4658 18.6079 19.4527 18.6079 19.4527C18.6079 19.4527 19.5959 20.3605 19.6212 20.3299C19.6212 20.3299 19.4903 20.5969 19.3605 20.865C19.2359 21.1363 19.1114 21.4087 19.1114 21.4087C19.0312 21.5839 19.1293 21.8467 19.3278 21.9903C19.3278 21.9903 19.4038 22.0452 19.5262 22.1159C19.6487 22.1887 19.8112 22.2848 19.9738 22.3808C20.1363 22.4748 20.2989 22.575 20.4234 22.6394C20.5522 22.6996 20.6377 22.7397 20.6377 22.7397C20.8594 22.8442 21.1359 22.802 21.2468 22.6458C21.2468 22.6458 21.4199 22.404 21.5909 22.1602C21.7587 21.9153 21.9244 21.6694 21.9244 21.6694C21.9244 21.6694 21.9994 21.7074 22.1197 21.7454C22.2379 21.7876 22.3973 21.8425 22.5546 21.8984C22.7129 21.9512 22.8702 22.0135 22.9916 22.0441C23.113 22.0737 23.1953 22.0937 23.1953 22.0937C23.1953 22.0937 23.5215 22.1729 23.8466 22.252C24.177 22.308 24.5095 22.3523 24.5095 22.3523C24.5095 22.3523 24.5317 22.651 24.5517 22.9498C24.5792 23.2485 24.6077 23.5472 24.6077 23.5472C24.6267 23.7457 24.8431 23.9188 25.0869 23.9283C25.0869 23.9283 25.4627 23.9452 25.8395 23.961C26.2153 23.9441 26.5932 23.9283 26.5932 23.9283C26.837 23.9188 27.0544 23.7467 27.0724 23.5472C27.0724 23.5472 27.0988 23.2485 27.1273 22.9498C27.1494 22.651 27.1706 22.3523 27.1706 22.3523C27.1706 22.3523 27.502 22.308 27.8334 22.252C28.1596 22.1729 28.4837 22.0937 28.4837 22.0937C28.4837 22.0937 28.566 22.0726 28.6874 22.043C28.8088 22.0135 28.9671 21.9502 29.1244 21.8974C29.2827 21.8414 29.4421 21.7865 29.5603 21.7443C29.6796 21.7053 29.7556 21.6683 29.7556 21.6683C29.7556 21.6683 29.9224 21.9132 30.0892 22.1592C30.2612 22.4009 30.4322 22.6447 30.4322 22.6447C30.5431 22.8009 30.8196 22.8432 31.0413 22.7387C31.0413 22.7387 31.1278 22.6985 31.2545 22.6384C31.3822 22.574 31.5416 22.4737 31.7063 22.3798C31.8667 22.2837 32.0303 22.1877 32.1517 22.1148C32.2742 22.0452 32.3502 21.9892 32.3502 21.9892C32.5486 21.8457 32.6468 21.5818 32.5676 21.4076C32.5676 21.4076 32.442 21.1353 32.3185 20.864C32.1876 20.5969 32.0578 20.3288 32.0578 20.3288C32.0821 20.3594 33.0701 19.4517 33.0701 19.4517C33.0701 19.4517 33.9768 18.4647 33.9472 18.4394C33.9472 18.4394 34.2143 18.5703 34.4813 18.7001C34.7537 18.8257 35.026 18.9503 35.026 18.9503C35.2002 19.0305 35.4641 18.9313 35.6076 18.7328C35.6076 18.7328 35.6636 18.6558 35.7322 18.5344C35.805 18.413 35.9011 18.2494 35.9982 18.0879C36.0921 17.9243 36.1924 17.7638 36.2568 17.6372C36.3159 17.5094 36.3571 17.4239 36.3571 17.4239C36.4616 17.2012 36.4183 16.9257 36.2621 16.8149C36.2621 16.8149 36.0193 16.6407 35.7776 16.4687C35.5327 16.3019 35.2867 16.1362 35.2867 16.1362C35.2867 16.1362 35.3237 16.0602 35.3617 15.9398C35.4039 15.8216 35.4598 15.6633 35.5147 15.5049C35.5686 15.3455 35.6308 15.1893 35.6604 15.0679C35.6899 14.9455 35.7111 14.8642 35.7111 14.8642C35.7111 14.8642 35.7902 14.538 35.8694 14.2119C35.9264 13.8815 35.9707 13.549 35.9707 13.549C35.9707 13.549 36.2684 13.5279 36.5671 13.5068C36.8658 13.4793 37.1646 13.4519 37.1646 13.4519C37.363 13.4339 37.5372 13.2165 37.5456 12.9716C37.5456 12.9716 37.5614 12.5958 37.5783 12.219C37.5625 11.8474 37.5467 11.4706 37.5467 11.4706Z" fill="#A0DBF9"/>
<path d="M25.8411 13.7135C26.6648 13.7135 27.3326 13.0457 27.3326 12.222C27.3326 11.3982 26.6648 10.7305 25.8411 10.7305C25.0174 10.7305 24.3496 11.3982 24.3496 12.222C24.3496 13.0457 25.0174 13.7135 25.8411 13.7135Z" fill="white"/>
<path d="M25.1317 12.6997C24.9807 12.6997 24.8287 12.6607 24.6883 12.5804L19.5858 9.63438C19.1614 9.38949 19.0168 8.84694 19.2617 8.42366C19.5045 7.99933 20.0492 7.85472 20.4714 8.0996L25.575 11.0457C25.9983 11.2905 26.1439 11.8331 25.899 12.2564C25.7354 12.5403 25.4378 12.6997 25.1317 12.6997Z" fill="white"/>
<path d="M26.5473 12.6999C26.2412 12.6999 25.9435 12.5406 25.7788 12.2566C25.535 11.8333 25.6785 11.2908 26.1029 11.0459L31.2075 8.09984C31.6298 7.85495 32.1734 7.9985 32.4172 8.42389C32.661 8.84717 32.5175 9.38972 32.0932 9.63461L26.9885 12.5817C26.8492 12.6619 26.6982 12.6999 26.5473 12.6999Z" fill="white"/>
<path d="M8.51367 34.4727H14.4227C14.4227 35.3002 14.0691 36.0095 13.536 36.5405C13.004 37.0725 12.2356 37.4261 11.4682 37.4261C9.81412 37.4272 8.51367 36.1278 8.51367 34.4727Z" fill="#FEBE76"/>
<path d="M21.1005 31.5195C21.9281 31.5195 22.5772 32.1698 22.5772 32.9973C22.5772 33.4111 22.401 33.7647 22.1624 34.0603C21.8679 34.3558 21.5132 34.474 21.0995 34.474H14.422H8.51408H1.89469C1.06819 34.474 0.417969 33.8238 0.417969 32.9973C0.417969 32.5835 0.595302 32.2278 0.832802 31.9333C1.1273 31.6378 1.48197 31.5195 1.89575 31.5195H21.1005Z" fill="#F0B25B"/>
<path d="M21.1004 18.9909V31.5784H1.89453V19.7594C1.89453 14.9724 5.44014 10.9539 10.0498 10.2457V8.6486C10.0498 8.23482 10.2281 7.88015 10.4646 7.58565C10.701 7.29115 11.1148 7.17188 11.5286 7.17188C12.3551 7.17188 13.0053 7.8221 13.0053 8.6486V10.2446C17.5548 10.9539 21.1004 14.9133 21.1004 18.9909Z" fill="#FCD884"/>
</g>
<defs>
<clipPath id="clip0_1081_2976">
<rect width="38" height="38" fill="white"/>
</clipPath>
</defs>
</svg>
