<svg width="24" height="24" viewBox="0 0 24 24" fill="none" xmlns="http://www.w3.org/2000/svg">
<path d="M4 19.5C4 18.837 4.263 18.201 4.732 17.732C5.201 17.264 5.837 17 6.5 17H20M4 19.5C4 20.163 4.263 20.799 4.732 21.268C5.201 21.736 5.837 22 6.5 22H20V2H6.5C5.837 2 5.201 2.263 4.732 2.732C4.263 3.201 4 3.837 4 4.5V19.5Z" stroke="#9E9E9E" stroke-width="2.5" stroke-linecap="round" stroke-linejoin="round"/>
<path d="M16.3276 9.27508C16.2316 9.06808 16.0616 8.91108 15.8486 8.83308C15.4186 8.67508 14.9156 8.90808 14.7556 9.33708C14.3336 10.4871 13.2266 11.2601 11.9996 11.2601C10.7736 11.2601 9.66562 10.4871 9.24262 9.33608C9.08562 8.90908 8.58163 8.67708 8.15163 8.83308C7.71263 8.99508 7.48663 9.48408 7.64763 9.92408C8.31563 11.7401 10.0646 12.9611 12.0006 12.9611C13.9366 12.9611 15.6856 11.7401 16.3526 9.92508C16.4316 9.71208 16.4226 9.48108 16.3276 9.27508Z" fill="#9E9E9E"/>
<path d="M10.596 8.23204C11.1323 8.23204 11.567 7.79731 11.567 7.26104C11.567 6.72477 11.1323 6.29004 10.596 6.29004C10.0597 6.29004 9.625 6.72477 9.625 7.26104C9.625 7.79731 10.0597 8.23204 10.596 8.23204Z" fill="#9E9E9E"/>
<path d="M13.4046 8.23204C13.9409 8.23204 14.3756 7.79731 14.3756 7.26104C14.3756 6.72477 13.9409 6.29004 13.4046 6.29004C12.8683 6.29004 12.4336 6.72477 12.4336 7.26104C12.4336 7.79731 12.8683 8.23204 13.4046 8.23204Z" fill="#9E9E9E"/>
</svg>
