<svg width="24" height="24" viewBox="0 0 24 24" fill="none" xmlns="http://www.w3.org/2000/svg">
<path d="M22.477 7.539H16.463V1.524C16.463 1.234 16.229 1 15.939 1H8.063C7.773 1 7.539 1.234 7.539 1.524V7.539H1.524C1.234 7.539 1 7.773 1 8.063V15.939C1 16.229 1.234 16.463 1.524 16.463H7.539V22.477C7.539 22.766 7.773 23 8.063 23H15.939C16.229 23 16.463 22.766 16.463 22.477V16.463H22.477C22.766 16.463 23 16.229 23 15.939V8.063C23 7.773 22.766 7.539 22.477 7.539ZM13.915 13.933V19.949C13.915 20.238 13.681 20.472 13.392 20.472H10.609C10.319 20.472 10.085 20.238 10.085 19.949V13.933H4.071C3.781 13.933 3.547 13.699 3.547 13.41V10.627C3.547 10.337 3.781 10.103 4.071 10.103H10.086V4.088C10.086 3.799 10.32 3.565 10.61 3.565H13.392C13.681 3.565 13.915 3.799 13.915 4.088V10.103H19.929C20.219 10.103 20.452 10.337 20.452 10.627V13.409C20.452 13.698 20.219 13.932 19.929 13.932L13.915 13.933Z" fill="#9E9E9E"/>
</svg>
