<svg width="24" height="24" viewBox="0 0 24 24" fill="none" xmlns="http://www.w3.org/2000/svg">
<path d="M10.8673 6.49797H6.19631C5.77931 6.49797 5.44531 6.15897 5.44531 5.74697C5.44531 5.33397 5.78431 4.99597 6.19631 4.99597H10.8673C11.2843 4.99597 11.6183 5.33497 11.6183 5.74697C11.6183 6.15797 11.2843 6.49797 10.8673 6.49797Z" fill="#9E9E9E"/>
<path d="M10.8683 6.62097H6.19727C5.71527 6.62097 5.32227 6.22797 5.32227 5.74597C5.32227 5.26397 5.71527 4.87097 6.19727 4.87097H10.8683C11.3503 4.87097 11.7433 5.26397 11.7433 5.74597C11.7433 6.22897 11.3513 6.62097 10.8683 6.62097ZM6.19727 5.11897C5.85127 5.11897 5.57027 5.39997 5.57027 5.74697C5.57027 6.09297 5.85127 6.37397 6.19727 6.37397H10.8683C11.2143 6.37397 11.4953 6.09197 11.4953 5.74697C11.4953 5.40097 11.2133 5.11897 10.8683 5.11897H6.19727Z" fill="#9E9E9E"/>
<path d="M10.868 6.82007H6.198C5.606 6.82007 5.125 6.33907 5.125 5.74707C5.125 5.15407 5.606 4.67407 6.198 4.67407H10.868C11.461 4.67407 11.941 5.15407 11.941 5.74707C11.941 6.33907 11.46 6.82007 10.868 6.82007ZM6.197 5.31307C5.961 5.31307 5.768 5.50607 5.768 5.74207C5.768 5.97807 5.961 6.17207 6.197 6.17207H10.867C11.103 6.17207 11.296 5.97807 11.296 5.74207C11.296 5.50607 11.104 5.31307 10.868 5.31307H6.197Z" fill="#9E9E9E"/>
<path d="M10.868 6.94305H6.198C5.537 6.94305 5 6.40605 5 5.74705C5 5.08705 5.537 4.55005 6.197 4.55005H10.867C11.527 4.55005 12.064 5.08705 12.064 5.74705C12.064 6.40605 11.528 6.94305 10.868 6.94305ZM6.197 4.79705C5.673 4.79705 5.247 5.22305 5.247 5.74705C5.247 6.27005 5.673 6.69605 6.197 6.69605H10.867C11.391 6.69605 11.817 6.27005 11.817 5.74705C11.817 5.22305 11.391 4.79705 10.867 4.79705H6.197ZM10.868 6.29505H6.198C5.893 6.29505 5.645 6.04705 5.645 5.74205C5.645 5.43705 5.893 5.18905 6.198 5.18905H10.868C11.173 5.18905 11.421 5.43705 11.421 5.74205C11.42 6.04705 11.172 6.29505 10.868 6.29505ZM6.197 5.43705C6.029 5.43705 5.891 5.57405 5.891 5.74305C5.891 5.91205 6.028 6.04905 6.197 6.04905H10.867C11.035 6.04905 11.173 5.91205 11.173 5.74305C11.173 5.57505 11.036 5.43705 10.867 5.43705H6.197Z" fill="#9E9E9E"/>
<path d="M9.36031 10.6649H6.19631C5.77931 10.6649 5.44531 10.3259 5.44531 9.91494C5.44531 9.50194 5.78431 9.16394 6.19631 9.16394H9.36031C9.77731 9.16394 10.1113 9.50294 10.1113 9.91494C10.1123 10.3259 9.77731 10.6649 9.36031 10.6649Z" fill="#9E9E9E"/>
<path d="M9.36127 10.7879H6.19727C5.71527 10.7879 5.32227 10.3959 5.32227 9.91394C5.32227 9.43194 5.71527 9.03894 6.19727 9.03894H9.36127C9.84327 9.03894 10.2363 9.43194 10.2363 9.91394C10.2363 10.3959 9.84427 10.7879 9.36127 10.7879ZM6.19727 9.28594C5.85127 9.28594 5.57027 9.56794 5.57027 9.91394C5.57027 10.2599 5.85127 10.5409 6.19727 10.5409H9.36127C9.70727 10.5409 9.98927 10.2599 9.98927 9.91394C9.98927 9.56794 9.70727 9.28594 9.36127 9.28594H6.19727Z" fill="#9E9E9E"/>
<path d="M9.36005 10.9871H6.19605C5.60405 10.9871 5.12305 10.5061 5.12305 9.91406C5.12305 9.32106 5.60405 8.84106 6.19605 8.84106H9.36005C9.95305 8.84106 10.433 9.32106 10.433 9.91406C10.433 10.5061 9.95305 10.9871 9.36005 10.9871ZM6.19605 9.48506C5.96005 9.48506 5.76705 9.67706 5.76705 9.91406C5.76705 10.1491 5.96005 10.3431 6.19605 10.3431H9.36005C9.59705 10.3431 9.78905 10.1491 9.78905 9.91406C9.78905 9.67706 9.59705 9.48506 9.36005 9.48506H6.19605Z" fill="#9E9E9E"/>
<path d="M9.361 11.111H6.197C5.537 11.111 5 10.574 5 9.91502C5 9.25502 5.537 8.71802 6.197 8.71802H9.361C10.021 8.71802 10.558 9.25502 10.558 9.91502C10.558 10.574 10.021 11.111 9.361 11.111ZM6.197 8.96502C5.673 8.96502 5.247 9.39102 5.247 9.91502C5.247 10.438 5.673 10.864 6.197 10.864H9.361C9.885 10.864 10.311 10.438 10.311 9.91502C10.311 9.39102 9.885 8.96502 9.361 8.96502H6.197ZM9.361 10.467H6.197C5.892 10.467 5.644 10.218 5.644 9.91402C5.644 9.60902 5.892 9.36102 6.197 9.36102H9.361C9.666 9.36102 9.914 9.61002 9.914 9.91402C9.914 10.219 9.666 10.467 9.361 10.467ZM6.197 9.60902C6.029 9.60902 5.891 9.74602 5.891 9.91502C5.891 10.083 6.028 10.22 6.197 10.22H9.361C9.529 10.22 9.667 10.083 9.667 9.91502C9.667 9.74602 9.53 9.60902 9.361 9.60902H6.197Z" fill="#9E9E9E"/>
<path d="M10.8673 14.8381H6.19631C5.77931 14.8381 5.44531 14.4981 5.44531 14.0861C5.44531 13.6741 5.78431 13.3341 6.19631 13.3341H10.8673C11.2843 13.3341 11.6183 13.6741 11.6183 14.0861C11.6183 14.4981 11.2843 14.8381 10.8673 14.8381Z" fill="#9E9E9E"/>
<path d="M10.8683 14.9621H6.19727C5.71527 14.9621 5.32227 14.5681 5.32227 14.0861C5.32227 13.6031 5.71527 13.2111 6.19727 13.2111H10.8683C11.3503 13.2111 11.7433 13.6031 11.7433 14.0861C11.7433 14.5681 11.3513 14.9621 10.8683 14.9621ZM6.19727 13.4581C5.85127 13.4581 5.57027 13.7401 5.57027 14.0861C5.57027 14.4331 5.85127 14.7141 6.19727 14.7141H10.8683C11.2143 14.7141 11.4953 14.4331 11.4953 14.0861C11.4953 13.7401 11.2133 13.4581 10.8683 13.4581H6.19727Z" fill="#9E9E9E"/>
<path d="M10.868 15.1591H6.198C5.606 15.1591 5.125 14.6791 5.125 14.0871C5.125 13.4941 5.606 13.0131 6.198 13.0131H10.868C11.461 13.0131 11.941 13.4941 11.941 14.0871C11.941 14.6791 11.46 15.1591 10.868 15.1591ZM6.197 13.6521C5.961 13.6521 5.768 13.8461 5.768 14.0821C5.768 14.3181 5.961 14.5121 6.197 14.5121H10.867C11.103 14.5121 11.296 14.3181 11.296 14.0821C11.296 13.8461 11.103 13.6521 10.867 13.6521H6.197Z" fill="#9E9E9E"/>
<path d="M10.868 15.283H6.198C5.537 15.283 5 14.746 5 14.087C5 13.426 5.537 12.89 6.197 12.89H10.867C11.527 12.89 12.064 13.426 12.064 14.087C12.064 14.746 11.528 15.283 10.868 15.283ZM6.197 13.137C5.673 13.137 5.247 13.563 5.247 14.087C5.247 14.61 5.673 15.036 6.197 15.036H10.867C11.391 15.036 11.817 14.61 11.817 14.087C11.817 13.563 11.391 13.137 10.867 13.137H6.197ZM10.868 14.635H6.198C5.893 14.635 5.645 14.387 5.645 14.082C5.645 13.776 5.893 13.528 6.198 13.528H10.868C11.173 13.528 11.421 13.776 11.421 14.082C11.42 14.387 11.172 14.635 10.868 14.635ZM6.197 13.775C6.029 13.775 5.891 13.913 5.891 14.082C5.891 14.251 6.028 14.388 6.197 14.388H10.867C11.035 14.388 11.173 14.251 11.173 14.082C11.173 13.913 11.036 13.775 10.867 13.775H6.197Z" fill="#9E9E9E"/>
<path d="M9.36031 19.0041H6.19631C5.77931 19.0041 5.44531 18.6641 5.44531 18.2531C5.44531 17.8421 5.78431 17.5021 6.19631 17.5021H9.36031C9.77731 17.5021 10.1113 17.8421 10.1113 18.2531C10.1113 18.6641 9.77731 19.0041 9.36031 19.0041Z" fill="#9E9E9E"/>
<path d="M9.36127 19.1281H6.19727C5.71527 19.1281 5.32227 18.7361 5.32227 18.2531C5.32227 17.7711 5.71527 17.3781 6.19727 17.3781H9.36127C9.84327 17.3781 10.2363 17.7711 10.2363 18.2531C10.2363 18.7361 9.84427 19.1281 9.36127 19.1281ZM6.19727 17.6261C5.85127 17.6261 5.57027 17.9071 5.57027 18.2531C5.57027 18.5991 5.85127 18.8811 6.19727 18.8811H9.36127C9.70727 18.8811 9.98927 18.5991 9.98927 18.2531C9.98927 17.9071 9.70727 17.6261 9.36127 17.6261H6.19727Z" fill="#9E9E9E"/>
<path d="M9.36005 19.327H6.19605C5.60405 19.327 5.12305 18.846 5.12305 18.254C5.12305 17.661 5.60405 17.181 6.19605 17.181H9.36005C9.95305 17.181 10.433 17.661 10.433 18.254C10.433 18.846 9.95305 19.327 9.36005 19.327ZM6.19605 17.824C5.96005 17.824 5.76705 18.017 5.76705 18.254C5.76705 18.489 5.96005 18.683 6.19605 18.683H9.36005C9.59705 18.683 9.78905 18.49 9.78905 18.254C9.78905 18.018 9.59705 17.824 9.36005 17.824H6.19605Z" fill="#9E9E9E"/>
<path d="M9.361 19.45H6.197C5.537 19.45 5 18.914 5 18.254C5 17.594 5.537 17.057 6.197 17.057H9.361C10.021 17.057 10.558 17.594 10.558 18.254C10.558 18.914 10.021 19.45 9.361 19.45ZM6.197 17.304C5.673 17.304 5.247 17.73 5.247 18.254C5.247 18.777 5.673 19.203 6.197 19.203H9.361C9.885 19.203 10.311 18.777 10.311 18.254C10.311 17.73 9.885 17.304 9.361 17.304H6.197ZM9.361 18.807H6.197C5.892 18.807 5.644 18.559 5.644 18.254C5.644 17.949 5.892 17.701 6.197 17.701H9.361C9.666 17.701 9.914 17.949 9.914 18.254C9.914 18.559 9.666 18.807 9.361 18.807ZM6.197 17.948C6.029 17.948 5.891 18.085 5.891 18.254C5.891 18.422 6.028 18.56 6.197 18.56H9.361C9.529 18.56 9.667 18.422 9.667 18.254C9.667 18.085 9.53 17.948 9.361 17.948H6.197Z" fill="#9E9E9E"/>
<path d="M18.6659 22.5541H5.33889C4.92189 22.5541 4.58789 22.2201 4.58789 21.8041V2.19607C4.58789 1.77907 4.92689 1.44507 5.33889 1.44507H18.6599C19.0779 1.44507 19.4139 1.78407 19.4139 2.19607V21.7991C19.4139 22.2151 19.0739 22.5511 18.6599 22.5511L18.6659 22.5541ZM6.09389 21.0481H17.9139V2.95207H6.09389V21.0481Z" fill="#9E9E9E"/>
<path d="M18.6668 22.678H5.33984C4.85784 22.678 4.46484 22.285 4.46484 21.804V2.19605C4.46484 1.71405 4.85784 1.32104 5.33984 1.32104H18.6608C19.1448 1.32104 19.5378 1.71305 19.5378 2.19605V21.799C19.5378 22.152 19.3288 22.456 19.0258 22.596L19.1838 22.675L18.6668 22.678ZM5.33984 1.56904C4.99384 1.56904 4.71284 1.85005 4.71284 2.19605V21.803C4.71284 22.149 4.99384 22.43 5.33984 22.43H18.1458L18.1398 22.427H18.6608C19.0088 22.427 19.2898 22.145 19.2898 21.798V2.19605C19.2898 1.85005 19.0088 1.56904 18.6608 1.56904H5.33984ZM18.0398 21.171H5.97084V2.82805H18.0398V21.171ZM6.21884 20.924H17.7918V3.07604H6.21884V20.924Z" fill="#9E9E9E"/>
<path d="M18.6656 22.876H5.33862C4.74562 22.876 4.26562 22.396 4.26562 21.804V2.19702C4.26562 1.60502 4.74562 1.12402 5.33862 1.12402H18.6596C19.2536 1.12402 19.7336 1.60502 19.7336 2.19702V21.799C19.7336 22.392 19.2536 22.871 18.6596 22.871L18.6656 22.876ZM5.33862 1.76802C5.10262 1.76802 4.90962 1.96102 4.90962 2.19702V21.799C4.90962 22.035 5.10262 22.229 5.33862 22.229H18.6596C18.8976 22.229 19.0916 22.036 19.0916 21.799V2.19702C19.0916 1.96102 18.8986 1.76802 18.6596 1.76802H5.33862ZM18.2316 21.37H5.77163V2.63002H18.2356V21.37H18.2316ZM6.41562 20.725H17.5936V3.27402H6.41562V20.725Z" fill="#9E9E9E"/>
<path d="M18.6666 23H5.33958C4.67958 23 4.14258 22.463 4.14258 21.804V2.197C4.14258 1.537 4.67958 1 5.33958 1H18.6606C19.3206 1 19.8576 1.537 19.8576 2.197V21.799C19.8576 22.366 19.4616 22.843 18.9296 22.965L18.9586 22.995L18.6666 23ZM5.33958 1.247C4.81558 1.247 4.38958 1.673 4.38958 2.197V21.804C4.38958 22.327 4.81558 22.753 5.33958 22.753H18.3676L18.3636 22.748H18.6606C19.1836 22.748 19.6096 22.322 19.6096 21.799V2.197C19.6096 1.673 19.1836 1.247 18.6606 1.247H5.33958ZM18.6606 22.353H5.33958C5.03458 22.353 4.78658 22.104 4.78658 21.799V2.197C4.78658 1.892 5.03458 1.644 5.33958 1.644H18.6606C18.9676 1.644 19.2156 1.892 19.2156 2.197V21.799C19.2156 22.104 18.9676 22.353 18.6606 22.353ZM5.33958 1.891C5.17158 1.891 5.03358 2.028 5.03358 2.197V21.799C5.03358 21.968 5.17058 22.105 5.33958 22.105H18.6606C18.8306 22.105 18.9696 21.968 18.9696 21.799V2.197C18.9696 2.029 18.8306 1.891 18.6606 1.891H5.33958ZM18.3596 21.494H5.64858V2.506H18.3596V21.494ZM5.89658 21.246H18.1146V2.753H5.89658V21.246ZM17.7176 20.849H6.29258V3.15H17.7166V20.849H17.7176ZM6.54058 20.602H17.4696V3.397H6.54058V20.602Z" fill="#9E9E9E"/>
</svg>
